HIERARCHY
ROOT Hips
{
	OFFSET 0.00000 0.00000 0.00000
	CHANNELS 6 Xposition Yposition Zposition Zrotation Yrotation Xrotation 
	JOINT LHipJoint
	{
		OFFSET 0 0 0
		CHANNELS 3 Zrotation Yrotation Xrotation
		JOINT LeftHip
		{
			OFFSET 1.64577 -1.42384 0.94276
			CHANNELS 3 Zrotation Yrotation Xrotation
			JOINT LeftKnee
			{
				OFFSET 2.11538 -5.81197 0.00000
				CHANNELS 3 Zrotation Yrotation Xrotation
				JOINT LeftAnkle
				{
					OFFSET 2.36541 -6.49893 0.00000
					CHANNELS 3 Zrotation Yrotation Xrotation
					JOINT LeftToe
					{
						OFFSET 0.17759 -0.48793 1.73865
						CHANNELS 3 Zrotation Yrotation Xrotation
						End Site
						{
							OFFSET 0.00000 -0.00000 0.91205
						}
					}
				}
			}
		}
	}
	JOINT RHipJoint
	{
		OFFSET 0 0 0
		CHANNELS 3 Zrotation Yrotation Xrotation
		JOINT RightHip
		{
			OFFSET -1.43750 -1.42384 0.94276
			CHANNELS 3 Zrotation Yrotation Xrotation
			JOINT RightKnee
			{
				OFFSET -2.10480 -5.78291 0.00000
				CHANNELS 3 Zrotation Yrotation Xrotation
				JOINT RightAnkle
				{
					OFFSET -2.34880 -6.45329 0.00000
					CHANNELS 3 Zrotation Yrotation Xrotation
					JOINT RightToe
					{
						OFFSET -0.22842 -0.62757 1.80469
						CHANNELS 3 Zrotation Yrotation Xrotation
						End Site
						{
							OFFSET -0.00000 -0.00000 0.95886
						}
					}
				}
			}
		}
	}
	JOINT lowerback
	{
		OFFSET 0 0 0
		CHANNELS 3 Zrotation Yrotation Xrotation
		JOINT Chest
		{
			OFFSET 0.06217 1.93758 -0.49272
			CHANNELS 3 Zrotation Yrotation Xrotation
			JOINT Chest2
			{
				OFFSET -0.03114 2.03621 -0.05830
				CHANNELS 3 Zrotation Yrotation Xrotation
				JOINT lowerneck
				{
					OFFSET 0 0 0
					CHANNELS 3 Zrotation Yrotation Xrotation
					JOINT Neck
					{
						OFFSET 0.04421 1.41010 0.26562
						CHANNELS 3 Zrotation Yrotation Xrotation
						JOINT Head
						{
							OFFSET -0.13407 1.43847 0.06181
							CHANNELS 3 Zrotation Yrotation Xrotation
							End Site
							{
								OFFSET -0.04980 1.45844 -0.00689
							}
						}
					}
				}
				JOINT LeftCollar
				{
					OFFSET 0 0 0
					CHANNELS 3 Zrotation Yrotation Xrotation
					JOINT LeftShoulder
					{
						OFFSET 2.18382 1.47753 -0.35694
CHANNELS 3 Zrotation Xrotation Yrotation
						JOINT LeftElbow
						{
OFFSET 0 -5.054600 0.000000
CHANNELS 3 Zrotation Xrotation Yrotation
							JOINT LeftWrist
							{
OFFSET 0 -3.390130 0.000000
CHANNELS 3 Zrotation Xrotation Yrotation
								JOINT lhand
								{
									OFFSET 0 0 0
CHANNELS 3 Zrotation Xrotation Yrotation
									JOINT LFingers
									{
OFFSET 0 -0.572420 -0.000000
CHANNELS 3 Zrotation Xrotation Yrotation
										End Site
										{
OFFSET 0 -0.461500 -0.000000
										}
									}
								}
								JOINT LThumb
								{
OFFSET 0 0.000000 0.000000
CHANNELS 3 Zrotation Xrotation Yrotation
									End Site
									{
OFFSET 0 -0.468550 0.468550
									}
								}
							}
						}
					}
				}
				JOINT RightCollar
				{
					OFFSET 0 0 0
					CHANNELS 3 Zrotation Yrotation Xrotation
					JOINT RightShoulder
					{
						OFFSET -2.06033 1.72839 -0.47437
CHANNELS 3 Zrotation Xrotation Yrotation
						JOINT RightElbow
						{
OFFSET 0 -5.070100 0.000000
CHANNELS 3 Zrotation Xrotation Yrotation
							JOINT RightWrist
							{
OFFSET 0 -3.149570 -0.000000
CHANNELS 3 Zrotation Xrotation Yrotation
								JOINT rhand
								{
									OFFSET 0 0 0
CHANNELS 3 Zrotation Xrotation Yrotation
									JOINT RFingers
									{
OFFSET 0 -0.718190 -0.000000
CHANNELS 3 Zrotation Xrotation Yrotation
										End Site
										{
OFFSET 0 -0.579020 -0.000000
										}
									}
								}
								JOINT RThumb
								{
OFFSET 0 0.000000 0.000000
CHANNELS 3 Zrotation Xrotation Yrotation
									End Site
									{
OFFSET 0 -0.587860 0.587860
									}
								}
							}
						}
					}
				}
			}
		}
	}
}
MOTION
Frames: 6
Frame Time: 0.008333333333333333
8.997000 15.476500 1.520500 2.376400 86.430100 -0.009700 0.000000 0.000000 0.000000 -24.488200 -19.207700 4.122800 1.687500 8.182400 23.269400 0.991600 16.467100 -30.973400 0.005700 0.486300 1.336300 0.000000 0.000000 0.000000 25.167000 18.016200 3.710800 -1.628200 -8.044400 22.848900 -1.064200 -19.240200 -34.283500 -1.705100 8.222800 -23.393000 -0.232500 1.973500 3.805200 -1.432600 2.681600 2.781600 -1.418300 1.374200 0.781000 7.278000 3.982700 -8.488100 -3.080400 4.870800 12.192600 -1.791100 2.538200 5.323000 -0.000000 0.000000 0.000000 3.565600 -0.873300 -19.684700 14.024000 -22.769100 2.837400 17.355400 11.959800 -10.840600 0.000000 0.000000 0.000000 -7.125000 0.000000 0.000000 -8.638200 41.170700 -0.822700 -0.000000 0.000000 0.000000 0.283700 8.023800 14.175600 -17.726000 -27.805000 -4.420700 -4.352900 -1.837800 -3.593900 0.000000 0.000000 0.000000 7.125000 0.000000 -0.000000 16.741400 26.282500 7.919500
8.997516 15.476822 1.519405 2.044079 86.429133 -0.316051 0.000000 0.000000 0.000000 -24.466483 -19.230834 4.094253 1.690400 8.188973 23.289506 0.988893 16.474060 -30.962961 0.005507 0.477987 1.313424 0.000000 0.000000 0.000000 25.167709 17.979275 3.688439 -1.624720 -8.036216 22.824155 -1.067744 -19.227634 -34.290717 -1.706775 8.226666 -23.404664 -0.184685 1.970793 3.788768 -1.433180 2.678829 2.765812 -1.445172 1.373169 0.776103 7.241011 3.971938 -8.504275 -3.045280 4.857654 12.261809 -1.774474 2.533431 5.344781 0.000000 0.000000 0.000000 3.549361 -0.899205 -19.681156 14.037339 -22.788110 2.842555 17.379243 11.855342 -10.662292 0.000000 0.000000 0.000000 -7.125000 0.000000 0.000000 -8.583812 40.989042 -0.856080 0.000000 0.000000 0.000000 0.285053 8.046741 14.437036 -17.742432 -27.826201 -4.428368 -4.821384 -2.374076 -3.432154 0.000000 0.000000 0.000000 7.125000 0.000000 0.000000 16.419003 26.441089 7.691251
8.997829 15.477173 1.518511 1.597619 86.419011 -0.746333 0.000000 0.000000 0.000000 -24.438326 -19.245622 4.072031 1.693848 8.196846 23.313597 0.985609 16.486564 -30.954485 0.004678 0.437356 1.201708 0.000000 0.000000 0.000000 25.182454 17.955261 3.684649 -1.620547 -8.026415 22.794442 -1.066812 -19.215761 -34.272866 -1.703137 8.218287 -23.378984 -0.136754 1.968722 3.791022 -1.429226 2.676607 2.748262 -1.468318 1.372340 0.758757 7.202549 3.966289 -8.508521 -3.010217 4.852277 12.318484 -1.757329 2.532360 5.361046 0.000000 0.000000 0.000000 3.536385 -0.922309 -19.677438 14.051863 -22.808824 2.848173 17.370046 11.788545 -10.603121 0.000000 0.000000 0.000000 -7.125000 0.000000 0.000000 -8.580689 40.927183 -0.869041 0.000000 0.000000 0.000000 0.288775 8.090361 14.687930 -17.774836 -27.867937 -4.443517 -5.258359 -2.906741 -3.278956 0.000000 0.000000 0.000000 7.125000 0.000000 0.000000 16.117834 26.591446 7.479118
8.997893 15.477560 1.517867 1.010628 86.397617 -1.329199 0.000000 0.000000 0.000000 -24.402240 -19.250133 4.057596 1.697973 8.206318 23.342595 0.981614 16.505897 -30.948428 0.003067 0.356934 0.980612 0.000000 0.000000 0.000000 25.214481 17.947141 3.703723 -1.615521 -8.014622 22.758613 -1.060368 -19.204742 -34.224148 -1.692955 8.194831 -23.307326 -0.088682 1.967434 3.816282 -1.419688 2.675060 2.728543 -1.486877 1.371760 0.726086 7.162274 3.966933 -8.498082 -2.975226 4.856466 12.359726 -1.739543 2.535839 5.370518 0.000000 0.000000 0.000000 3.527428 -0.941963 -19.673507 14.067844 -22.831636 2.854359 17.320169 11.768117 -10.690632 0.000000 0.000000 0.000000 -7.125000 0.000000 0.000000 -8.640683 41.012825 -0.856862 0.000000 0.000000 0.000000 0.295412 8.159441 14.925846 -17.826904 -27.934955 -4.467876 -5.656538 -3.434962 -3.136285 0.000000 0.000000 0.000000 7.125000 0.000000 0.000000 15.842801 26.731669 7.286827
8.997958 15.477600 1.518147 0.282349 86.384078 -2.063347 0.000000 0.000000 0.000000 -24.345705 -19.223625 4.043219 1.700537 8.212210 23.360618 0.970860 16.536088 -30.909619 0.001687 0.254389 0.698922 0.000000 0.000000 0.000000 25.279549 17.982806 3.744401 -1.611881 -8.006064 22.732488 -1.041331 -19.284641 -34.199114 -1.690283 8.188703 -23.288752 -0.046732 1.965452 3.840561 -1.403913 2.673167 2.728348 -1.495096 1.371180 0.713458 7.128237 3.979072 -8.517506 -2.941448 4.872149 12.381502 -1.721757 2.544229 5.379702 0.000000 0.000000 0.000000 3.521070 -0.965141 -19.710588 14.098901 -22.875936 2.866437 17.270869 11.807820 -10.884368 0.000000 0.000000 0.000000 -7.125000 0.000000 0.000000 -8.720779 41.207870 -0.822386 0.000000 0.000000 0.000000 0.310714 8.224190 15.122749 -17.892605 -28.019360 -4.498704 -6.034154 -3.976930 -3.052011 0.000000 0.000000 0.000000 7.125000 0.000000 0.000000 15.574006 26.815400 7.122377
8.998289 15.477689 1.518422 -0.228148 86.367962 -2.579891 0.000000 0.000000 0.000000 -24.303969 -19.194752 4.026473 1.703477 8.218953 23.381214 0.959237 16.575129 -30.874306 0.000733 0.176685 0.485476 0.000000 0.000000 0.000000 25.328652 18.013563 3.781204 -1.607868 -7.996570 22.703577 -1.027656 -19.349651 -34.189141 -1.691986 8.192639 -23.300850 -0.020011 1.963589 3.853247 -1.391790 2.671523 2.737560 -1.497857 1.370711 0.716425 7.100227 3.993473 -8.552217 -2.912761 4.889184 12.397786 -1.706170 2.552898 5.390119 0.000000 0.000000 0.000000 3.514813 -0.992168 -19.759715 14.136387 -22.929359 2.881039 17.212266 11.833693 -11.038340 0.000000 0.000000 0.000000 -7.125000 0.000000 0.000000 -8.801555 41.361052 -0.796812 0.000000 0.000000 0.000000 0.322444 8.265545 15.328833 -17.949978 -28.093030 -4.525661 -6.432950 -4.541759 -2.980706 0.000000 0.000000 0.000000 7.125000 0.000000 0.000000 15.287193 26.886716 6.955107
